<svg width="22" height="22" viewBox="0 0 22 22" fill="none" xmlns="http://www.w3.org/2000/svg">
<path d="M2.75 6.41666H19.25" stroke="#F96F0D" stroke-width="1.3" stroke-linecap="round" stroke-linejoin="round"/>
<path d="M8.77234 10.0833H6.4165" stroke="#F96F0D" stroke-width="1.3" stroke-linecap="round" stroke-linejoin="round"/>
<path d="M10.0833 15.5833H5.5C3.98108 15.5833 2.75 14.3523 2.75 12.8333V5.5C2.75 3.98108 3.98108 2.75 5.5 2.75H16.5C18.0189 2.75 19.25 3.98108 19.25 5.5V9.16667" stroke="#F96F0D" stroke-width="1.3" stroke-linecap="round" stroke-linejoin="round"/>
<path d="M15.8521 18.9814L19.8982 14.9353C20.2567 14.5768 20.2567 13.9966 19.8982 13.6391L18.4444 12.1853C18.086 11.8268 17.5057 11.8268 17.1482 12.1853L13.1021 16.2314C12.9297 16.4038 12.8335 16.6366 12.8335 16.8795V19.25H15.204C15.4469 19.25 15.6797 19.1538 15.8521 18.9814Z" stroke="#F96F0D" stroke-width="1.3" stroke-linecap="round" stroke-linejoin="round"/>
</svg>
