<svg width="12" height="9" viewBox="0 0 12 9" fill="none" xmlns="http://www.w3.org/2000/svg">
<path d="M6.20803 8.63201C8.69763 8.63201 10.634 6.48819 11.4638 5.24339C11.8096 4.7593 11.8096 4.1369 11.4638 3.65281C10.634 2.47717 8.69763 0.333344 6.20803 0.333344C3.71843 0.333344 1.78207 2.47717 0.952204 3.72197C0.606427 4.20605 0.606427 4.82845 0.952204 5.24339C1.78207 6.48819 3.71843 8.63201 6.20803 8.63201ZM6.20803 2.40801C7.38367 2.40801 8.28269 3.30703 8.28269 4.48268C8.28269 5.65832 7.38367 6.55734 6.20803 6.55734C5.03238 6.55734 4.13336 5.65832 4.13336 4.48268C4.13336 3.30703 5.03238 2.40801 6.20803 2.40801Z" fill="#5E6272"/>
</svg>
