<svg width="17" height="16" viewBox="0 0 17 16" fill="none" xmlns="http://www.w3.org/2000/svg">
<path d="M17 4.99976C17 6.65661 15.6569 7.99976 14 7.99976C12.3431 7.99976 11 6.65661 11 4.99976C11 3.3429 12.3431 1.99976 14 1.99976C15.6569 1.99976 17 3.3429 17 4.99976Z" fill="#0DA6C2"/>
<path fill-rule="evenodd" clip-rule="evenodd" d="M13.7772 16H2.22281C0.394434 16 -0.649243 14.1609 0.447786 12.8721C0.933441 12.3016 1.23274 11.6249 1.31328 10.9153L1.76046 6.97519C2.0016 4.85063 3.58766 3.10719 5.73005 2.37366V2.26995C5.73005 1.01629 6.74634 0 8 0C9.25366 0 10.2699 1.01629 10.2699 2.26995V2.37366C10.2901 2.38056 10.3102 2.38755 10.3303 2.39463C9.8074 3.12982 9.49994 4.02889 9.49994 4.99976C9.49994 7.48504 11.5147 9.49976 13.9999 9.49976C14.1767 9.49976 14.3512 9.48956 14.5227 9.46972L14.6867 10.9153C14.7673 11.6249 15.0666 12.3016 15.5522 12.8721C16.6492 14.1609 15.6056 16 13.7772 16Z" fill="#F5F5F5"/>
</svg>
